<?xml version="1.0" encoding="utf-8"?>
<!-- Generator: Adobe Illustrator 26.0.3, SVG Export Plug-In . SVG Version: 6.00 Build 0)  -->
<!DOCTYPE svg PUBLIC "-//W3C//DTD SVG 1.1//EN" "http://www.w3.org/Graphics/SVG/1.1/DTD/svg11.dtd" [
	<!ENTITY ns_extend "http://ns.adobe.com/Extensibility/1.0/">
	<!ENTITY ns_ai "http://ns.adobe.com/AdobeIllustrator/10.0/">
	<!ENTITY ns_graphs "http://ns.adobe.com/Graphs/1.0/">
	<!ENTITY ns_vars "http://ns.adobe.com/Variables/1.0/">
	<!ENTITY ns_imrep "http://ns.adobe.com/ImageReplacement/1.0/">
	<!ENTITY ns_sfw "http://ns.adobe.com/SaveForWeb/1.0/">
	<!ENTITY ns_custom "http://ns.adobe.com/GenericCustomNamespace/1.0/">
	<!ENTITY ns_adobe_xpath "http://ns.adobe.com/XPath/1.0/">
]>
<svg version="1.1" id="Layer_1" xmlns:x="&ns_extend;" xmlns:i="&ns_ai;" xmlns:graph="&ns_graphs;"
	 xmlns="http://www.w3.org/2000/svg" xmlns:xlink="http://www.w3.org/1999/xlink" x="0px" y="0px" viewBox="0 0 234 108"
	 style="enable-background:new 0 0 234 108;" xml:space="preserve">
<style type="text/css">
	.st0{stroke:#58595B;stroke-width:0.25;stroke-miterlimit:10;}
	.st1{stroke:#58595B;stroke-width:0.25;stroke-miterlimit:4.0006;}
	.st2{fill:#B44E4E;}
	.st3{fill:#FFFFFF;}
</style>
<metadata>
	<sfw  xmlns="&ns_sfw;">
		<slices></slices>
		<sliceSourceBounds  bottomLeftOrigin="true" height="98.833" width="16383" x="-8191.5" y="-342.167"></sliceSourceBounds>
	</sfw>
</metadata>
<g id="Ellipse_1" transform="matrix(1, -0.017, 0.017, 1, 317.381, 71.876)">
	<circle cx="-200.019" cy="-21.276" r="40.494"/>
	<circle cx="-200.019" cy="-21.276" r="40.367"/>
</g>
<g id="Ellipse_1_00000050621873020346643610000000417508303873606320_" transform="matrix(1, -0.017, 0.017, 1, 317.381, 71.876)">
	<circle class="st0" cx="-200.019" cy="-21.276" r="38.244"/>
	<circle class="st1" cx="-200.019" cy="-21.276" r="38.124"/>
</g>
<g id="Ellipse_1_00000103944191713529142110000018217474722700734628_" transform="matrix(1, -0.017, 0.017, 1, 317.381, 71.876)">
	<circle class="st0" cx="-200.019" cy="-21.276" r="35.995"/>
	<circle class="st1" cx="-200.019" cy="-21.276" r="35.882"/>
</g>
<g id="Ellipse_1_00000111173933246683147500000003739719858550051518_" transform="matrix(1, -0.017, 0.017, 1, 317.381, 71.876)">
	<circle class="st0" cx="-200.019" cy="-21.276" r="33.745"/>
	<circle class="st1" cx="-200.019" cy="-21.276" r="33.639"/>
</g>
<g id="Ellipse_1_00000023975022251366574080000017441023852340426395_" transform="matrix(1, -0.017, 0.017, 1, 317.381, 71.876)">
	<circle class="st0" cx="-200.019" cy="-21.276" r="31.495"/>
	<circle class="st1" cx="-200.019" cy="-21.276" r="31.397"/>
</g>
<g id="Ellipse_1_00000002348133628346351010000010293654365949512079_" transform="matrix(1, -0.017, 0.017, 1, 317.381, 71.876)">
	<circle class="st0" cx="-200.019" cy="-21.276" r="29.246"/>
	<circle class="st1" cx="-200.019" cy="-21.276" r="29.154"/>
</g>
<g id="Ellipse_1_00000056421983759255241970000014385358830768098945_" transform="matrix(1, -0.017, 0.017, 1, 317.381, 71.876)">
	<circle class="st0" cx="-200.019" cy="-21.276" r="26.996"/>
	<circle class="st1" cx="-200.019" cy="-21.276" r="26.911"/>
</g>
<g id="Ellipse_1_00000011022122794424489700000001984915912997926312_" transform="matrix(1, -0.017, 0.017, 1, 317.381, 71.876)">
	<circle class="st0" cx="-200.019" cy="-21.276" r="24.746"/>
	<circle class="st1" cx="-200.019" cy="-21.276" r="24.669"/>
</g>
<g id="Ellipse_1_00000016040793658276290500000007904448156450128556_" transform="matrix(1, -0.017, 0.017, 1, 317.381, 71.876)">
	<circle class="st0" cx="-200.019" cy="-21.276" r="22.497"/>
	<circle class="st1" cx="-200.019" cy="-21.276" r="22.426"/>
</g>
<g id="Ellipse_1_00000070110951769355028740000012337606791585183108_" transform="matrix(1, -0.017, 0.017, 1, 317.381, 71.876)">
	<circle class="st0" cx="-200.019" cy="-21.276" r="20.247"/>
	<circle class="st1" cx="-200.019" cy="-21.276" r="20.184"/>
</g>
<circle id="Ellipse_2" class="st2" cx="117" cy="54" r="11.25"/>
<g>
	<path d="M18.925,41.545c0.116-0.02,0.222-0.01,0.319,0.028c0.135,0.098,0.203,0.223,0.203,0.377v16.009
		c0.039,2.571,0.628,3.876,1.769,3.915c0.251,0.038,0.386,0.174,0.406,0.405c-0.039,0.252-0.174,0.388-0.406,0.406H13.56
		c-0.251-0.038-0.387-0.174-0.406-0.406c0.039-0.251,0.174-0.387,0.406-0.405c1.16-0.059,1.75-1.373,1.769-3.944L15.3,50.013
		c0-0.619,0-1.044,0-1.276c-0.136-2.049-0.677-3.122-1.624-3.219c-0.02,0-0.048,0-0.087,0c-0.058,0-0.097,0-0.116,0
		c-0.193-0.058-0.3-0.193-0.319-0.406c0.019-0.192,0.125-0.318,0.319-0.377c0.019-0.019,0.067-0.029,0.145-0.029
		c0.058,0,0.097,0,0.116,0c0.928-0.076,2.059-0.579,3.393-1.508c0.773-0.521,1.295-1.005,1.566-1.45
		C18.77,41.652,18.847,41.584,18.925,41.545z"/>
	<path d="M28.639,47.635c0.077,0,0.145,0.01,0.203,0.028c0.135,0.098,0.203,0.223,0.203,0.378v9.918
		c0.039,2.571,0.628,3.876,1.769,3.915c0.251,0.038,0.386,0.174,0.406,0.405c-0.039,0.252-0.174,0.388-0.406,0.406h-7.656
		c-0.251-0.038-0.387-0.174-0.406-0.406c0.039-0.251,0.174-0.387,0.406-0.405c1.16-0.059,1.75-1.373,1.769-3.944l-0.029-1.827
		c0-0.618,0-1.044,0-1.276c-0.136-2.049-0.677-3.122-1.624-3.219c-0.02,0-0.048,0-0.087,0c-0.058,0-0.097,0-0.116,0
		c-0.193-0.058-0.3-0.193-0.319-0.406c0.019-0.192,0.125-0.318,0.319-0.377c0.019-0.019,0.067-0.028,0.145-0.028
		c0.058,0,0.097,0,0.116,0c0.928-0.077,2.059-0.57,3.393-1.479c0.773-0.541,1.295-1.034,1.566-1.479
		C28.388,47.702,28.504,47.635,28.639,47.635z M26.581,41.516c0.947,0,1.653,0.406,2.117,1.218c0.232,0.387,0.348,0.803,0.348,1.247
		c0,0.928-0.396,1.634-1.189,2.117c-0.387,0.231-0.812,0.348-1.276,0.348c-0.928,0-1.624-0.396-2.088-1.188
		c-0.232-0.406-0.358-0.831-0.377-1.276c0-0.908,0.406-1.604,1.218-2.088C25.72,41.66,26.135,41.535,26.581,41.516z"/>
	<path d="M36.063,43.807c0.135-0.058,0.271-0.058,0.406,0c0.097,0.077,0.164,0.174,0.203,0.29c0,0.039,0,0.097,0,0.174v0.87
		c0,1.276,0.087,2.03,0.261,2.262c0.193,0.193,0.541,0.3,1.044,0.319h0.29c0.212,0,0.357,0.029,0.435,0.087
		c0.097,0.097,0.145,0.203,0.145,0.319c-0.02,0.135-0.078,0.241-0.174,0.318c-0.097,0.059-0.232,0.087-0.406,0.087h-0.174
		c-0.677,0-1.093,0.146-1.247,0.436c-0.116,0.29-0.174,1.024-0.174,2.204v6.757c0,1.837,0.561,2.823,1.682,2.958
		c0.425,0.058,0.851-0.01,1.276-0.203c0.039-0.02,0.087-0.048,0.145-0.087c0.154-0.097,0.28-0.146,0.377-0.146
		c0.232,0.02,0.357,0.155,0.377,0.406c0,0.116-0.087,0.271-0.261,0.464c-0.947,1.006-2.204,1.557-3.77,1.653
		c-0.116,0-0.213,0-0.29,0c-1.315,0-2.31-0.522-2.987-1.566c-0.464-0.734-0.696-1.624-0.696-2.668v-6.264
		c0-2.011-0.078-3.18-0.232-3.509c-0.155-0.29-0.522-0.436-1.102-0.436c-0.078,0-0.145,0-0.203,0
		c-0.213-0.019-0.348-0.028-0.406-0.028c-0.155-0.097-0.242-0.223-0.261-0.377c0.019-0.175,0.106-0.3,0.261-0.377
		c0.039-0.02,0.111-0.034,0.218-0.044c0.106-0.01,0.178-0.015,0.217-0.015c0.928-0.192,2.088-0.918,3.48-2.175
		c0.599-0.541,1.034-1.005,1.305-1.392C35.937,43.933,36.024,43.826,36.063,43.807z"/>
	<path d="M45.691,43.807c0.135-0.058,0.271-0.058,0.406,0c0.097,0.077,0.164,0.174,0.203,0.29c0,0.039,0,0.097,0,0.174v0.87
		c0,1.276,0.087,2.03,0.261,2.262c0.193,0.193,0.541,0.3,1.044,0.319h0.29c0.212,0,0.357,0.029,0.435,0.087
		c0.097,0.097,0.145,0.203,0.145,0.319c-0.02,0.135-0.078,0.241-0.174,0.318c-0.097,0.059-0.232,0.087-0.406,0.087h-0.174
		c-0.677,0-1.093,0.146-1.247,0.436c-0.116,0.29-0.174,1.024-0.174,2.204v6.757c0,1.837,0.561,2.823,1.682,2.958
		c0.425,0.058,0.851-0.01,1.276-0.203c0.039-0.02,0.087-0.048,0.145-0.087c0.154-0.097,0.28-0.146,0.377-0.146
		c0.232,0.02,0.357,0.155,0.377,0.406c0,0.116-0.087,0.271-0.261,0.464c-0.947,1.006-2.204,1.557-3.77,1.653
		c-0.116,0-0.213,0-0.29,0c-1.315,0-2.31-0.522-2.987-1.566c-0.464-0.734-0.696-1.624-0.696-2.668v-6.264
		c0-2.011-0.078-3.18-0.232-3.509c-0.155-0.29-0.522-0.436-1.102-0.436c-0.078,0-0.145,0-0.203,0
		c-0.213-0.019-0.348-0.028-0.406-0.028c-0.155-0.097-0.242-0.223-0.261-0.377c0.019-0.175,0.106-0.3,0.261-0.377
		c0.039-0.02,0.111-0.034,0.218-0.044c0.106-0.01,0.178-0.015,0.217-0.015c0.928-0.192,2.088-0.918,3.48-2.175
		c0.599-0.541,1.034-1.005,1.305-1.392C45.565,43.933,45.653,43.826,45.691,43.807z"/>
	<path d="M56.509,41.545c0.116-0.02,0.222-0.01,0.319,0.028c0.135,0.098,0.203,0.223,0.203,0.377v16.009
		c0.039,2.571,0.628,3.876,1.769,3.915c0.251,0.038,0.386,0.174,0.406,0.405c-0.039,0.252-0.174,0.388-0.406,0.406h-7.656
		c-0.251-0.038-0.387-0.174-0.406-0.406c0.039-0.251,0.174-0.387,0.406-0.405c1.16-0.059,1.75-1.373,1.769-3.944l-0.029-7.917
		c0-0.619,0-1.044,0-1.276c-0.136-2.049-0.677-3.122-1.624-3.219c-0.02,0-0.048,0-0.087,0c-0.058,0-0.097,0-0.116,0
		c-0.193-0.058-0.3-0.193-0.319-0.406c0.019-0.192,0.125-0.318,0.319-0.377c0.019-0.019,0.067-0.029,0.145-0.029
		c0.058,0,0.097,0,0.116,0c0.928-0.076,2.059-0.579,3.393-1.508c0.773-0.521,1.295-1.005,1.566-1.45
		C56.354,41.652,56.431,41.584,56.509,41.545z"/>
	<path d="M66.021,47.576c0.58-0.058,1.141-0.067,1.682-0.028c1.005,0.115,1.836,0.367,2.494,0.754
		c1.334,0.754,2.088,1.75,2.262,2.986c0.019,0.155,0.029,0.301,0.029,0.436c-0.097,1.47-0.938,2.494-2.523,3.074
		c-0.387,0.135-0.986,0.29-1.798,0.464c-0.793,0.193-1.344,0.348-1.653,0.464c-0.851,0.329-1.421,0.754-1.711,1.276
		c-0.29,0.58-0.116,1.208,0.522,1.885c1.005,1.121,2.281,1.652,3.828,1.595c1.314-0.038,2.32-0.493,3.016-1.363
		c0.116-0.135,0.232-0.212,0.348-0.231c0.251,0.039,0.387,0.174,0.406,0.406c-0.02,0.097-0.097,0.251-0.232,0.464
		c-1.431,2.068-3.335,3.103-5.713,3.103c-1.334-0.02-2.61-0.377-3.828-1.073c-1.895-1.082-3.036-2.764-3.422-5.046
		c-0.271-1.682-0.068-3.325,0.609-4.93c0.831-1.895,2.175-3.18,4.031-3.857C64.909,47.761,65.46,47.635,66.021,47.576z
		 M67.993,48.447c-0.522-0.135-1.063-0.105-1.624,0.087c-1.199,0.426-2.011,1.432-2.436,3.017c-0.174,0.619-0.271,1.275-0.29,1.972
		c0,0.909,0.087,1.75,0.261,2.523c0.116,0.31,0.271,0.348,0.464,0.115c0.387-0.502,0.909-0.918,1.566-1.247
		c2.552-1.275,3.731-2.88,3.538-4.813C69.278,49.23,68.785,48.679,67.993,48.447z"/>
	<path class="st3" d="M86.872,41.719c0.154-0.193,0.338-0.242,0.551-0.146c0.135,0.078,0.203,0.203,0.203,0.377v5.888
		c0,0.154,0.009,0.29,0.028,0.405c0.039,0.329,0.155,0.475,0.349,0.436c0.135-0.039,0.348-0.135,0.638-0.29
		c0.387-0.193,0.677-0.319,0.87-0.377c0.599-0.193,1.257-0.29,1.972-0.29c2.455,0,4.195,1.15,5.221,3.451
		c0.521,1.218,0.782,2.601,0.782,4.146c-0.077,5.008-2.059,7.53-5.944,7.569c-0.89,0-2.03-0.348-3.422-1.044
		c-0.252-0.116-0.416-0.193-0.493-0.232c-0.678-0.328-1.663-0.125-2.958,0.609c-0.059,0.039-0.146,0.106-0.262,0.203
		c-0.154,0.116-0.271,0.193-0.348,0.231c-0.058,0.02-0.106,0.029-0.145,0.029c-0.194-0.019-0.329-0.106-0.406-0.261
		c0-0.077,0-0.154,0-0.232l-0.029-12.209c0-0.599,0-1.024,0-1.275c-0.136-2.03-0.677-3.094-1.624-3.19c-0.02,0-0.048,0-0.087,0
		c-0.058,0-0.097,0-0.116,0c-0.193-0.077-0.3-0.213-0.319-0.406c0.019-0.212,0.125-0.348,0.319-0.406c0.019,0,0.067,0,0.145,0
		c0.039,0,0.077,0,0.116,0c0.928-0.096,2.059-0.599,3.393-1.508C86.079,42.657,86.601,42.163,86.872,41.719z M90.352,48.795
		c-0.155,0-0.29,0.01-0.406,0.028c-0.947,0.136-1.624,0.483-2.029,1.044c-0.098,0.136-0.165,0.271-0.203,0.406
		c-0.039,0.136-0.068,0.455-0.087,0.957l0.028,6.699h-0.028v1.508l0.028,0.029c0,0.928,0.445,1.527,1.334,1.798
		c1.779,0.483,3.045-0.357,3.8-2.523c0.348-1.062,0.521-2.204,0.521-3.422C93.29,50.97,92.305,48.795,90.352,48.795z"/>
	<path class="st3" d="M103.663,41.545c0.115-0.02,0.222-0.01,0.318,0.028c0.136,0.098,0.203,0.223,0.203,0.377v16.009
		c0.039,2.571,0.628,3.876,1.77,3.915c0.251,0.038,0.386,0.174,0.405,0.405c-0.039,0.252-0.174,0.388-0.405,0.406h-7.656
		c-0.252-0.038-0.387-0.174-0.406-0.406c0.039-0.251,0.174-0.387,0.406-0.405c1.16-0.059,1.749-1.373,1.769-3.944l-0.028-7.917
		c0-0.619,0-1.044,0-1.276c-0.136-2.049-0.678-3.122-1.624-3.219c-0.02,0-0.049,0-0.087,0c-0.059,0-0.098,0-0.116,0
		c-0.193-0.058-0.3-0.193-0.319-0.406c0.02-0.192,0.126-0.318,0.319-0.377c0.019-0.019,0.067-0.029,0.145-0.029
		c0.059,0,0.097,0,0.116,0c0.928-0.076,2.06-0.579,3.394-1.508c0.772-0.521,1.295-1.005,1.565-1.45
		C103.508,41.652,103.585,41.584,103.663,41.545z"/>
	<path class="st3" d="M113.29,47.693c0.58-0.038,1.121-0.038,1.624,0c2.205,0.232,3.703,1.17,4.496,2.813
		c0.328,0.695,0.492,1.46,0.492,2.291v5.133c0,1.779,0.338,2.784,1.016,3.016c0.289,0.078,0.57-0.01,0.84-0.261l0.059-0.058
		c0.059-0.059,0.098-0.097,0.115-0.116c0.078-0.039,0.146-0.059,0.203-0.059c0.252,0.039,0.387,0.175,0.406,0.406
		c0,0.116-0.049,0.232-0.145,0.349c-0.6,0.851-1.402,1.362-2.406,1.536c-0.193,0.039-0.377,0.059-0.551,0.059
		c-1.471-0.02-2.523-0.59-3.162-1.711c-0.135-0.251-0.289-0.31-0.463-0.174c-0.02,0.019-0.039,0.038-0.059,0.058
		c-1.103,1.141-2.505,1.778-4.205,1.914c-1.683,0.116-2.91-0.329-3.684-1.334c-0.213-0.29-0.367-0.59-0.464-0.899
		c-0.116-0.367-0.184-0.802-0.203-1.305c-0.039-1.527,0.726-2.726,2.291-3.596c0.329-0.175,1.382-0.628,3.161-1.363
		c0.87-0.348,1.556-0.687,2.059-1.015c0.658-0.541,0.986-1.15,0.986-1.827c-0.213-2.049-0.996-3.084-2.349-3.104
		c-0.948,0-1.547,0.388-1.798,1.16c-0.059,0.193-0.098,0.387-0.116,0.58c-0.02,0.213-0.01,0.532,0.028,0.957
		c0.02,0.406,0.02,0.696,0,0.87c-0.019,0.483-0.115,0.88-0.289,1.188c-0.329,0.542-0.822,0.822-1.479,0.842
		c-0.716,0-1.237-0.319-1.566-0.957c-0.038-0.097-0.077-0.193-0.115-0.29c-0.059-0.271-0.068-0.619-0.029-1.044
		c0.213-1.527,1.111-2.668,2.697-3.423C111.473,47.964,112.343,47.751,113.29,47.693z M115.756,53.522
		c-0.136,0.155-0.319,0.319-0.551,0.493c-0.291,0.231-0.735,0.541-1.335,0.928c-1.102,0.696-1.808,1.286-2.117,1.77
		c-0.29,0.464-0.454,0.995-0.492,1.595c0,0.445,0.038,0.841,0.115,1.188c0.232,0.755,0.754,1.258,1.566,1.509
		c0.928,0.271,1.672,0.058,2.233-0.639c0.387-0.502,0.58-1.188,0.58-2.059V53.522z"/>
	<path class="st3" d="M128.051,47.722c0.793-0.174,1.672-0.222,2.639-0.146c0.716,0.078,1.354,0.232,1.914,0.465
		c1.296,0.521,2.146,1.362,2.553,2.522c0.212,0.657,0.241,1.324,0.087,2.001c-0.174,0.754-0.6,1.229-1.276,1.421
		c-0.155,0.039-0.31,0.059-0.464,0.059c-0.716,0-1.228-0.319-1.537-0.957c-0.039-0.059-0.058-0.106-0.058-0.146
		c-0.116-0.328-0.146-0.696-0.087-1.102c0.019-0.116,0.145-0.503,0.377-1.16c0.097-0.29,0.145-0.57,0.145-0.841
		c0-0.503-0.242-0.89-0.725-1.16c-0.426-0.213-0.967-0.31-1.624-0.29c-1.276,0.136-2.224,0.909-2.842,2.32
		c-0.368,0.831-0.562,1.769-0.58,2.812c-0.02,2.301,0.541,4.089,1.682,5.365c1.005,1.121,2.281,1.652,3.828,1.595
		c1.314-0.058,2.32-0.512,3.016-1.363c0.077-0.096,0.136-0.164,0.174-0.202c0.059-0.02,0.116-0.029,0.175-0.029
		c0.251,0.039,0.386,0.174,0.405,0.406c-0.02,0.097-0.087,0.241-0.202,0.435c-1.432,2.088-3.336,3.132-5.714,3.132
		c-1.354-0.02-2.639-0.377-3.856-1.073c-1.896-1.082-3.036-2.764-3.422-5.046c-0.271-1.682-0.068-3.325,0.608-4.93
		c0.831-1.895,2.176-3.18,4.031-3.857C127.567,47.858,127.819,47.78,128.051,47.722z"/>
	<path class="st3" d="M142.029,41.516c0.077,0.02,0.146,0.039,0.203,0.058c0.135,0.098,0.203,0.223,0.203,0.377V55.32l4.089-3.799
		c1.74-1.624,2.06-2.591,0.957-2.9c-0.232-0.076-0.521-0.115-0.87-0.115c-0.251-0.02-0.387-0.155-0.406-0.406
		c0.02-0.232,0.155-0.367,0.406-0.406h5.8c0.251,0.039,0.387,0.174,0.406,0.406c-0.02,0.231-0.136,0.367-0.348,0.406
		c-0.039,0-0.068,0-0.087,0c-1.025,0.039-2.572,1.044-4.641,3.016l-2.232,2.088l3.189,4.321c1.354,1.855,2.301,2.997,2.842,3.422
		c0.465,0.348,0.899,0.522,1.306,0.522c0.231,0.038,0.367,0.174,0.406,0.405c-0.039,0.252-0.175,0.388-0.406,0.406h-0.667h-1.566
		h-1.682c-1.237-0.019-2.291-0.599-3.161-1.74l-3.335-4.523v1.537c0.038,2.571,0.628,3.876,1.769,3.915
		c0.251,0.038,0.387,0.174,0.406,0.405c-0.039,0.252-0.174,0.388-0.406,0.406h-7.655c-0.252-0.038-0.388-0.174-0.406-0.406
		c0.038-0.251,0.174-0.387,0.406-0.405c1.16-0.059,1.749-1.373,1.769-3.944l-0.029-7.917c0-0.619,0-1.044,0-1.276
		c-0.135-2.049-0.677-3.122-1.624-3.219c-0.02,0-0.048,0-0.087,0s-0.077,0-0.115,0c-0.194-0.058-0.301-0.193-0.319-0.406
		c0.019-0.192,0.125-0.318,0.319-0.377c0.019-0.019,0.067-0.029,0.145-0.029c0.038,0,0.077,0,0.116,0
		c0.928-0.076,2.059-0.579,3.393-1.508c0.773-0.521,1.295-1.005,1.566-1.45c0.077-0.096,0.154-0.163,0.231-0.202
		C141.952,41.545,141.99,41.535,142.029,41.516z"/>
	<path d="M175.206,41.516c0.058,0.02,0.115,0.039,0.174,0.058c0.135,0.098,0.212,0.223,0.231,0.377V57.93
		c0.02,2.591,0.609,3.905,1.77,3.944c0.231,0.038,0.367,0.174,0.406,0.405c-0.039,0.252-0.175,0.388-0.406,0.406h-4.438
		c-0.541,0-0.977-0.232-1.305-0.696c-0.097-0.135-0.155-0.261-0.174-0.377c-1.218,0.852-2.514,1.276-3.886,1.276
		c-3.926,0-5.907-2.475-5.945-7.424c0-0.059,0-0.097,0-0.116V55.32c0-0.019,0-0.038,0-0.058c0-2.745,0.744-4.795,2.233-6.148
		c1.005-0.928,2.262-1.392,3.77-1.392c1.16,0,2.242,0.28,3.248,0.841c0.328,0.116,0.493-0.077,0.493-0.58
		c-0.213-1.547-0.735-2.368-1.566-2.465h-0.058c-0.059,0-0.097,0-0.116,0c-0.193-0.077-0.3-0.213-0.319-0.406
		c0.02-0.192,0.116-0.318,0.29-0.377c0.039-0.019,0.087-0.029,0.146-0.029c0.058,0,0.097,0,0.116,0
		c0.946-0.076,2.088-0.579,3.422-1.508c0.772-0.521,1.295-1.005,1.565-1.45c0.059-0.096,0.136-0.163,0.232-0.202
		C175.128,41.545,175.167,41.535,175.206,41.516z M168.768,48.795c-1.972,0-2.968,2.175-2.987,6.524c0,2.05,0.416,3.664,1.247,4.843
		c0.793,1.063,1.827,1.432,3.104,1.103c0.831-0.387,1.275-0.986,1.334-1.798v-0.319v-8.497c0-0.772-0.57-1.334-1.711-1.682
		c-0.213-0.077-0.406-0.126-0.58-0.146C169.019,48.805,168.884,48.795,168.768,48.795z"/>
	<path d="M184.805,47.635c0.077,0,0.146,0.01,0.203,0.028c0.135,0.098,0.203,0.223,0.203,0.378v9.918
		c0.038,2.571,0.628,3.876,1.769,3.915c0.251,0.038,0.387,0.174,0.406,0.405c-0.039,0.252-0.174,0.388-0.406,0.406h-7.655
		c-0.252-0.038-0.388-0.174-0.406-0.406c0.038-0.251,0.174-0.387,0.406-0.405c1.16-0.059,1.749-1.373,1.769-3.944l-0.029-1.827
		c0-0.618,0-1.044,0-1.276c-0.135-2.049-0.677-3.122-1.624-3.219c-0.02,0-0.048,0-0.087,0c-0.058,0-0.097,0-0.115,0
		c-0.194-0.058-0.301-0.193-0.319-0.406c0.019-0.192,0.125-0.318,0.319-0.377c0.019-0.019,0.067-0.028,0.145-0.028
		c0.058,0,0.097,0,0.116,0c0.928-0.077,2.059-0.57,3.393-1.479c0.773-0.541,1.295-1.034,1.566-1.479
		C184.554,47.702,184.669,47.635,184.805,47.635z M182.746,41.516c0.947,0,1.652,0.406,2.117,1.218
		c0.231,0.387,0.348,0.803,0.348,1.247c0,0.928-0.396,1.634-1.189,2.117c-0.387,0.231-0.812,0.348-1.275,0.348
		c-0.928,0-1.624-0.396-2.088-1.188c-0.232-0.406-0.358-0.831-0.377-1.276c0-0.908,0.405-1.604,1.218-2.088
		C181.886,41.66,182.301,41.535,182.746,41.516z"/>
	<path d="M193.766,47.403c2.319,0.039,3.992,0.648,5.017,1.827c0.367,0.445,0.609,0.928,0.726,1.45
		c0.076,0.521,0.028,0.986-0.146,1.392c-0.348,0.6-0.86,0.909-1.537,0.929c-0.695-0.02-1.208-0.329-1.537-0.929
		c-0.154-0.251-0.271-0.802-0.348-1.652c-0.02-0.329-0.058-0.609-0.116-0.842c-0.231-0.812-0.89-1.266-1.972-1.362
		c-0.116,0-0.223,0-0.319,0c-0.909,0.058-1.585,0.444-2.03,1.16c-0.154,0.271-0.231,0.541-0.231,0.812
		c0,0.87,0.628,1.634,1.885,2.291c0.251,0.116,0.638,0.29,1.16,0.522c0.444,0.213,0.773,0.367,0.986,0.464
		c2.068,1.044,3.412,2.049,4.03,3.016c0.31,0.522,0.493,1.054,0.552,1.595c0.096,1.334-0.368,2.494-1.393,3.48
		c-0.793,0.754-1.74,1.218-2.842,1.392c-0.735,0.077-1.614,0.067-2.639-0.028c-2.146-0.251-3.693-0.957-4.641-2.117
		c-0.115-0.154-0.213-0.3-0.29-0.436c-0.464-0.772-0.57-1.537-0.318-2.291c0.019-0.096,0.048-0.184,0.087-0.261
		c0.348-0.599,0.859-0.899,1.537-0.899c0.676,0.02,1.188,0.319,1.537,0.899c0.115,0.232,0.241,0.764,0.377,1.595
		c0.058,0.368,0.135,0.678,0.231,0.929c0.406,0.928,1.103,1.518,2.088,1.769c0.271,0.058,0.522,0.087,0.754,0.087
		c0.773,0,1.431-0.3,1.973-0.898c0.271-0.329,0.425-0.667,0.464-1.016c0.038-0.831-0.58-1.614-1.856-2.349
		c-0.271-0.154-0.715-0.387-1.334-0.696c-0.348-0.174-0.6-0.309-0.754-0.406c-1.585-0.812-2.552-1.343-2.899-1.595
		c-1.199-0.908-1.809-2.011-1.827-3.306c0-1.663,0.754-2.91,2.262-3.741c0.889-0.503,1.933-0.764,3.132-0.783
		c0.039,0,0.077,0,0.116,0C193.707,47.403,193.746,47.403,193.766,47.403z"/>
	<path d="M207.104,47.722c0.793-0.174,1.672-0.222,2.639-0.146c0.716,0.078,1.354,0.232,1.914,0.465
		c1.296,0.521,2.146,1.362,2.553,2.522c0.212,0.657,0.241,1.324,0.087,2.001c-0.174,0.754-0.6,1.229-1.276,1.421
		c-0.155,0.039-0.31,0.059-0.464,0.059c-0.716,0-1.228-0.319-1.537-0.957c-0.039-0.059-0.058-0.106-0.058-0.146
		c-0.116-0.328-0.146-0.696-0.087-1.102c0.019-0.116,0.145-0.503,0.377-1.16c0.097-0.29,0.145-0.57,0.145-0.841
		c0-0.503-0.242-0.89-0.725-1.16c-0.426-0.213-0.967-0.31-1.624-0.29c-1.276,0.136-2.224,0.909-2.842,2.32
		c-0.368,0.831-0.562,1.769-0.58,2.812c-0.02,2.301,0.541,4.089,1.682,5.365c1.005,1.121,2.281,1.652,3.828,1.595
		c1.314-0.058,2.32-0.512,3.016-1.363c0.077-0.096,0.136-0.164,0.174-0.202c0.059-0.02,0.116-0.029,0.175-0.029
		c0.251,0.039,0.386,0.174,0.405,0.406c-0.02,0.097-0.087,0.241-0.202,0.435c-1.432,2.088-3.336,3.132-5.714,3.132
		c-1.354-0.02-2.639-0.377-3.856-1.073c-1.896-1.082-3.036-2.764-3.422-5.046c-0.271-1.682-0.068-3.325,0.608-4.93
		c0.831-1.895,2.176-3.18,4.031-3.857C206.621,47.858,206.873,47.78,207.104,47.722z"/>
</g>
</svg>
